<?xml version="1.0" encoding="UTF-8" standalone="no"?>
<!DOCTYPE svg PUBLIC "-//W3C//DTD SVG 1.1//EN" "http://www.w3.org/Graphics/SVG/1.1/DTD/svg11.dtd">
<svg width="100%" height="100%" viewBox="0 0 822 480" version="1.1" xmlns="http://www.w3.org/2000/svg" xmlns:xlink="http://www.w3.org/1999/xlink" xml:space="preserve" xmlns:serif="http://www.serif.com/" style="fill-rule:evenodd;clip-rule:evenodd;stroke-linejoin:round;stroke-miterlimit:2;">
    <g transform="matrix(1,0,0,1,-6453,-5765.4)">
        <g transform="matrix(1,0,0,1,5247.97,5493)">
            <g transform="matrix(2.64356,0,0,2.64356,642.822,-282.123)">
                <path d="M303.306,372.649L267.052,336.395L267.052,321.116L251.515,321.116L251.515,391.035L212.671,391.035L212.671,209.764L311.334,209.764C312.629,209.764 314.182,210.282 315.218,211.318L340.596,236.696C340.682,236.782 340.765,236.872 340.844,236.966L304.86,272.95C303.824,273.986 303.306,275.54 303.306,276.834L303.306,372.649ZM340.844,236.966L348.624,229.186L348.624,209.764L387.467,209.764L387.467,229.186L395.247,236.966C394.376,237.989 393.941,239.394 393.941,240.58L393.941,290.559L368.045,264.663L342.15,290.559L342.15,310.24L393.941,310.24L393.941,348.825L342.15,348.825L342.15,359.183C342.15,357.888 341.632,356.334 340.596,355.299L306.414,321.116L311.334,321.116C312.887,321.116 313.923,320.857 315.477,319.303L340.596,294.185C341.632,293.149 342.15,291.595 342.15,290.3L342.15,240.58C342.15,239.394 341.715,237.989 340.844,236.966ZM395.247,236.966C395.326,236.872 395.409,236.782 395.495,236.696L420.873,211.318C421.909,210.282 423.462,209.764 424.757,209.764L492.604,209.764C493.899,209.764 495.453,210.282 496.488,211.318L521.866,236.696C522.902,237.732 523.42,239.286 523.42,240.58L523.42,274.504L484.576,274.504L484.576,259.225L473.959,248.608L443.402,248.608L432.785,259.225L432.785,276.834C432.785,275.54 432.267,273.986 431.231,272.95L395.247,236.966ZM432.785,341.574L443.402,352.191L473.959,352.191L484.576,341.574L484.576,326.295L523.42,326.295L523.42,360.219C523.42,361.514 522.902,363.067 521.866,364.103L496.488,389.481C495.453,390.517 493.899,391.035 492.604,391.035L432.785,391.035L432.785,341.574ZM424.757,391.035L393.941,391.035L393.941,360.219C393.941,361.514 394.459,363.067 395.495,364.103L420.873,389.481C421.909,390.517 423.462,391.035 424.757,391.035ZM251.515,282.273L292.689,282.273L303.306,271.655L303.306,259.225L292.689,248.608L251.515,248.608L251.515,282.273Z" style="fill:rgb(214,7,29);"/>
            </g>
        </g>
    </g>
</svg>
